<svg width="1000" height="148" viewBox="0 0 1000 148" xmlns="http://www.w3.org/2000/svg"><title>Company logo</title><g fill="#FFF" fill-rule="evenodd"><path d="M455.954.316h28.82c-7.956 48.736-20.601 92.571-24.763 144.784h-27.292c.79-5.058.948-10.748 1.58-15.964-7.429 9.694-18.756 19.705-36.038 18.177-20.231-1.739-29.452-21.549-27.555-43.572 2.318-27.397 16.754-45.89 37.619-55.48 10.168-4.689 25.395-7.745 38.566-2.845 2.635-14.91 5.69-29.4 8.483-44.204-.053-.474.21-.738.58-.896zm-27.24 65.227c-17.386 1.791-28.977 23.182-27.555 42.307.79 10.854 9.747 20.074 21.022 13.804 14.91-8.324 16.228-33.667 20.706-52.634-3.74-2.476-8.06-4.11-14.173-3.477zM754.953.316h29.136c-3.478 19.284-7.64 37.882-11.592 56.744 3.372-2.318 5.954-5.637 9.379-7.85 11.96-7.587 31.56-8.378 41.675 1.264 6.639 6.323 10.327 16.175 10.327 27.556.105 39.515-27.819 71.654-70.495 69.283-18.072-1.001-32.298-9.326-31.033-32.297.527-9.59 3.372-19.178 5.321-28.82 5.532-27.66 11.17-57.798 16.913-84.932.052-.421 0-.895.369-.948zm19.125 75.237c-3.899 4.69-7.113 12.013-9.115 21.286-1.633 7.64-4.268 20.495.632 25.395 5.111 5.11 15.701 2.107 20.39-1.265 9.01-6.48 18.335-23.709 16.913-39.778-.738-8.114-5.848-14.805-14.753-13.804-6.217.737-10.853 4.32-14.067 8.166zM361.012 2.213c11.275-.738 19.915 9.958 14.436 21.918-4.953 10.695-23.973 12.803-29.136 1.58-5.743-12.381 3.951-22.76 14.7-23.498zm151.686 0c12.118-.79 20.758 12.065 13.487 23.498-7.692 12.171-31.506 9.747-29.452-9.115.843-8.113 6.586-13.75 15.965-14.383zm470.126 16.28h.632c-1.212 9.115-3.372 17.334-4.689 26.344 6.375.737 14.12.105 21.022.316-1.106 7.85-2.845 15.121-4.373 22.55h-21.022c-1.58 6.586-2.95 14.91-4.689 23.498-1.686 8.43-6.217 20.97-2.845 27.556 2.213 4.267 9.167 3.793 15.648 3.108-1.317 7.534-2.055 15.7-3.425 23.182-18.546 5.111-41.254 2.16-43.256-15.648-1.422-12.908 2.53-24.078 4.69-35.405 1.738-9.168 3.213-18.125 5.005-26.344h-12.54c1.107-7.798 2.53-15.226 4.057-22.55h12.54c1.527-6.006 2.581-12.487 3.74-18.81 10.116-2.317 19.705-5.162 29.505-7.797zM98.999 61.117c6.744-10.696 31.612-25.975 48.577-14.436 16.175 11.064 8.483 40.2 4.69 60.484a4928.233 4928.233 0 0 1-7.219 37.935h-28.503c1.791-9.43 3.635-20.337 5.637-31.349 1.95-10.59 4.953-21.285 5.638-31.032.79-10.538-3.214-19.284-14.12-15.069-1.739.685-4.005 2.002-5.322 3.109-15.911 14.014-15.49 50.369-21.918 74.288H58.272c1.95-10.8 3.793-21.707 5.954-32.929 2.054-10.854 5.69-22.023 5.637-33.246-.053-9.747-6.85-15.542-15.964-10.326C34.14 79.82 34.72 119.178 28.504 144.995H0c5.796-33.298 12.645-65.49 17.545-99.684h25.079c-.685 5.163-1.054 10.643-1.897 15.648 1.897-.843 2.687-2.898 4.057-4.373 6.217-6.639 15.227-12.856 27.292-13.804 14.7-.948 24.289 5.795 26.923 18.335zm187.408 17.281c.737-1.053-.474-.316-.633.316-6.902 6.27-14.278 13.752-21.917 18.177 3.53-16.016 5.48-33.561 7.218-51.422h25.711c-.79 6.638-1.159 13.646-1.897 20.39 8.114-11.907 16.07-24.025 37.619-22.55-1.528 9.958-3.688 19.336-5.638 28.82-38.408-2.898-34.984 43.888-42.623 73.024h-29.452c.843-4.373 1.686-8.799 2.528-13.172-14.646 9.484-34.773 18.177-59.22 14.752-21.39-3.003-34.088-16.649-34.14-41.359-.054-17.176 6.796-31.928 15.647-42.308 10.327-12.118 24.289-21.232 46.68-19.757 16.492 1.106 29.031 10.695 30.401 26.343 1.528 17.229-7.955 26.66-19.441 31.35-12.645 5.162-27.556 5.795-45.153 5.637.421 11.907 9.43 17.176 20.074 17.86 17.544 1.16 33.087-6.164 44.52-14.752 12.171-9.115 21.18-21.39 29.452-31.349h.264zm-57.64-2.845c2.055-7.956-5.058-11.275-11.591-10.959-11.697.527-20.126 10.696-22.234 20.706 12.487-.948 31.085.633 33.825-9.747zm397.366-27.555c-5.269 31.928-14.542 59.852-14.436 97.155H584.72c.316-6.586.79-13.014 1.264-19.442-8.166 11.644-17.703 22.972-36.67 21.602-17.387-1.265-27.397-15.753-27.555-34.457-.211-20.706 7.955-37.197 18.177-48.262 11.011-11.96 25.922-19.915 46.364-21.285 15.438-1.107 27.925 1.633 39.832 4.689zm-43.204 17.545c-17.28 1.633-30.98 23.762-30.4 42.623.158 4.795 1.106 9.8 4.373 12.856 5.321 4.953 14.015 1.686 17.86-1.58 12.54-10.59 14.332-33.984 18.178-53.267-4.215-.369-6.27-1.001-10.01-.632zm131.613 79.61h-29.769c2.95-15.543 6.534-33.93 9.695-50.79 2.16-11.38 5.585-30.717-11.275-26.976-2.582.58-5.058 2.265-6.902 3.74-16.913 13.805-16.702 49.579-22.866 73.973h-29.452c5.9-33.403 12.803-65.753 18.177-99.684h25.71c-.21 5.638-1.21 10.485-1.58 15.964 7.482-7.955 16.07-16.965 30.717-18.177 19.23-1.58 29.083 8.325 30.084 24.763.843 13.383-3.161 26.344-5.637 39.2-2.53 13.224-4.637 26.027-6.902 37.987zm150.105-38.567c-.263 23.709 35.774 19.389 50.158 11.591.843 6.744 1.106 14.12 2.213 20.706-13.54 7.429-34.141 11.064-51.423 6.902-16.122-3.899-26.238-14.647-28.503-32.613-2.371-18.546 3.793-35.722 12.54-47.313 8.903-11.855 22.128-21.286 39.778-22.55 17.913-1.317 31.56 5.216 36.986 16.28 5.954 12.118 2.055 28.398-6.902 35.722-12.487 10.221-31.349 11.222-54.847 11.275zm36.67-30.4c2.635-8.114-5.058-11.855-11.591-11.592-11.75.527-20.18 10.643-22.234 20.706 12.434-.843 30.822.316 33.825-9.115zM341.254 45.468h29.136c-6.48 33.087-12.54 66.649-19.126 99.684H322.13c5.848-33.246 12.54-65.596 18.493-98.736.263-.263.21-.843.632-.948zm151.686 0h29.136c-6.533 33.087-12.54 66.649-19.126 99.684h-29.452c6.428-32.719 12.645-65.7 18.81-98.736.316-.263.21-.843.632-.948z"/></g></svg>