<svg id="Layer_1" data-name="Layer 1" xmlns="http://www.w3.org/2000/svg" viewBox="0 0 513.4 267.33"><defs><style>.cls-1{fill:#346275;}</style></defs><title>kwikpay</title><path class="cls-1" d="M368.58,194.44c-9.1,9.61-20.47,13.49-33.49,13.27-2.2,0-4.45-.32-6.6.31-5.38,1.57-8.81,5-9.94,10.62-1.3,6.41-2.53,12.84-3.82,19.25a13.52,13.52,0,0,1-15.34,10.62c-4.74-.75-7.68-4.53-6.94-9.59.75-5.22,1.93-10.38,3-15.56q7.75-38.85,15.54-77.68c1.28-6.41,6.2-11,12.63-11.08,12-.15,24-.41,35.95,1.51a26.12,26.12,0,0,1,14,7.24c8.82,10.77,7.86,22.68,4.05,34.91A46.94,46.94,0,0,1,368.58,194.44ZM358.1,164.91c-.06-1.1-.08-2.21-.19-3.3-.64-6.06-4.08-9.2-10.16-9.27-1.73,0-3.47,0-5.21,0a13.22,13.22,0,0,0-12.65,10.18c-.87,3.77-1.57,7.56-2.34,11.35-.42,2.08-.87,4.17-1.24,6.26-1.08,6.15,2,9.83,8.16,9.64a86.48,86.48,0,0,0,12.22-1.43,3.61,3.61,0,0,0,2-1.1A31.46,31.46,0,0,0,358.1,164.91Z" transform="translate(-7.18 -15.45)"/><path class="cls-1" d="M480.16,211.44l13-30.3c1-2.31,2-4.64,3-6.95a17.66,17.66,0,0,1,18.73-10.31c5.18.79,7.09,4.56,4.7,9.65Q512.35,188.82,505,204c-9.17,18.85-17.68,38-27.43,56.59-3,5.65-6.14,11.15-10.81,15.72-6.89,6.75-17.72,7.85-26.35,5-.78-.27-1-.63-.73-1.39,1.78-4.71,3.23-9.56,5.68-14a2,2,0,0,1,1.81-1.24c7.2-.41,11.58-4,13.73-11.08a41.35,41.35,0,0,0,1.39-15.25c-1.29-17.4-2.68-34.8-4-52.2-.31-4-.66-8-.86-12A9.32,9.32,0,0,1,465.67,164c4-.56,7.92-.36,11.13,2.62,2.56,2.37,3.4,5.37,3.34,8.77q-.33,16.58-.55,33.17A4,4,0,0,0,480.16,211.44Z" transform="translate(-7.18 -15.45)"/><path class="cls-1" d="M414,239.27a39.73,39.73,0,0,1-6.84,6.78,19.44,19.44,0,0,1-16.3,3.78c-7.59-1.51-12.93-8.1-13.43-16.28-1.15-18.56,10.07-32.05,28.45-34.41,3.54-.45,7.11-.11,10.63-.74,4.36-.78,5.4-1.83,6-6.23.26-2,.56-4.06.83-6.1a6.4,6.4,0,0,0-2.73-6.34,6.56,6.56,0,0,0-7.32.79,12.08,12.08,0,0,0-3.92,6.86c-.34,1.53-.87,2.06-2.46,2-5.93-.13-11.86-.11-17.78-.16-.92,0-1.86.27-1.4-1.45a34,34,0,0,1,41.43-24.73c11.43,2.85,18,12.46,16.36,24.43-1.32,10-3.88,19.8-5.67,29.73-1.18,6.59-2.85,13.1-3.34,19.81a66.38,66.38,0,0,0,.32,10.17c.08,1,0,1.46-1.18,1.41-5.2-.19-10.43.39-15.61-.47-.86-.14-1.7-.34-2.55-.53-2.08-.47-3.35-1.52-3.16-3.92A31.8,31.8,0,0,0,414,239.27Zm-13.89-12.86c-.08,6,2.91,8.2,8,6.5a19.93,19.93,0,0,0,2.57-1.2c6-3.07,6.55-9.31,6.39-16.82-.07-3-1-3.54-4.16-3.26-1.88.16-3.74.59-5.62.83a2.7,2.7,0,0,0-1.76,1A21.39,21.39,0,0,0,400.08,226.41Z" transform="translate(-7.18 -15.45)"/><path class="cls-1" d="M12,214.45c1.92-9.43,4-18.84,5.72-28.3,1.52-8.26,3.29-16.46,5-24.69,1.06-5.18,2.12-10.36,3.12-15.55,1.51-7.81,7.94-12.39,15.74-11.15a7.6,7.6,0,0,1,6.61,7.49c0,5.41-1.8,10.56-2.68,15.84-1,5.75-2.65,11.38-3.06,17.22a11.37,11.37,0,0,0,0,1.43c.09,1.56-.1,3.48,1.61,4.13,1.52.57,2.49-1,3.49-2,3.74-3.57,5.81-8.24,8.27-12.65q5.82-10.44,11.47-21c3.69-6.9,9.5-10.37,17.19-10.79a43.39,43.39,0,0,1,8.52.24c4.28.62,6,3.66,3.78,7.48-1.68,2.93-3.72,5.66-5.64,8.45-7.13,10.4-14.34,20.75-21.41,31.2a23.43,23.43,0,0,0-3.11,20.37c2.17,7.59,4.51,15.13,6.77,22.69,1.25,4.38,2.57,8.74,3.72,13.14,1.75,6.67-1.31,10.4-8.22,10.63-4.94.16-9.36-.71-13.09-4.21a11.09,11.09,0,0,1-3.32-5.27c-1.36-5.06-2.58-10.16-3.86-15.25-1.2-6.26-2.45-12.51-5-18.39-.72-1.69-1.49-3.92-3.69-3.81-2,.1-2.59,2.34-3.27,4-2.18,5.2-2.79,10.79-3.84,16.26-1.06,5.14-2.2,10.26-3.16,15.42a13.52,13.52,0,0,1-15.14,11.17c-5.31-.66-8.18-5.17-7-11.06Z" transform="translate(-7.18 -15.45)"/><path class="cls-1" d="M93,224.41c.06-14.61.1-29.23.2-43.84,0-2.83-.34-5.69.27-8.49,1.1-5.05,5.88-8.77,10.55-8.29,5.51.57,9.51,4.73,9.4,10.29-.15,7.72-.52,15.45-1,23.16-.25,3.79-.21,7.56-.35,11.58,1-.49,1.19-1.37,1.49-2.07q6.72-15.54,13.39-31.1c1.69-3.93,3.55-7.67,7.35-10.12,4.6-3,8.63-1.91,11.12,3,1.92,3.77,1.45,7.89,1.68,11.86.52,9.14.73,18.29,1.07,27.44,0,.28.07.56.6.94,1.4-3.8,2.83-7.6,4.19-11.42,2.76-7.73,5.42-15.5,8.24-23.21,2.1-5.77,6.41-9.06,12.36-10.2s9.89,3.54,8,9.22c-.81,2.4-1.76,4.74-2.65,7.1-7.38,18.66-14.79,37.31-22.09,56-1.56,4-3.53,7.54-7.19,10-7.63,5.12-16,1.15-16.58-8-.48-7.4-.68-14.82-1-22.22a75.19,75.19,0,0,0-1.11-10.68c-.66,1.37-1.35,2.72-2,4.11q-6.5,14.48-13,28.95a16.87,16.87,0,0,1-11.4,9.9A9.19,9.19,0,0,1,93.19,240C93,234.83,93.08,229.62,93,224.41Z" transform="translate(-7.18 -15.45)"/><path class="cls-1" d="M270.36,248.59c-7.36.69-14.11-4.31-15.83-12.05a145.09,145.09,0,0,0-5.28-18.92c-.53-1.44-.93-3.8-2.34-3.79-1.74,0-1.86,2.43-2.34,3.92-2,6.42-2.94,13.09-4.3,19.65a13.54,13.54,0,0,1-15,11.15,7.83,7.83,0,0,1-7.39-8.31c.18-5,1.65-9.79,2.61-14.66,4.64-23.53,9.4-47.05,14.05-70.58a5.14,5.14,0,0,1,3-4A73,73,0,0,0,258,135.33c.64-.69,1.2-2.17,2.23-1.66.88.44.39,1.87.2,2.85-2.06,10.37-4.16,20.73-6.21,31.11q-2.17,11-4.22,22.08a28.62,28.62,0,0,0-.27,4.25c0,.52-.12,1.21.55,1.42s1-.34,1.38-.74a52.08,52.08,0,0,0,6-8.53c2.49-4.12,5-8.24,7.41-12.41,4.41-7.59,13.33-11.17,22.51-9.71,4.5.72,5.56,4.07,2.65,8.13-3.78,5.26-7.75,10.39-11.58,15.62-2.88,3.93-6.19,7.58-7.28,12.6a23.71,23.71,0,0,0,.44,12.83c2.58,7.79,4.76,15.72,7.51,23.45C281.92,244,278.8,249.32,270.36,248.59Z" transform="translate(-7.18 -15.45)"/><path class="cls-1" d="M201.32,153.31a71.67,71.67,0,0,1-30-7.92,50.94,50.94,0,0,1-9.11-6.36c-12.07-10.16-18.72-23.34-21.34-38.66a59.3,59.3,0,0,1,1.88-27.46C141.2,83.1,141.49,93.14,145.2,103c.62-2.12,1.26-4.24,1.87-6.36A215.27,215.27,0,0,1,174.93,37c1.15-1.73,2-2.17,3.63-.68,1.3,1.23,3.85,1.7,4,3.37.11,1.38-1.66,2.89-2.51,4.39-1,1.76-1.9,3.11-4,1.14-1.21-1.13-1.9.16-2.36,1A243.65,243.65,0,0,0,155.2,84.49a242.52,242.52,0,0,0-7.15,23.73,5.21,5.21,0,0,0,.47,4.06,54.11,54.11,0,0,0,4.85,7.81c.65-2.89,1.22-5.38,1.77-7.88a204,204,0,0,1,28.39-67c1.74-2.7,3.46-5.41,5.4-8,.71-.95,1-1,2-.39,5.78,3.64,6,4.88,1.3,10-.6.67-1.11.86-1.73.12-1.71-2-2.72-1.14-3.87.71a223.44,223.44,0,0,0-21.78,44.59,217.93,217.93,0,0,0-7.94,30.88c-.12.63-.3,1.27.18,1.81a53.13,53.13,0,0,0,6.32,6.18c.63-3.54,1.16-6.71,1.76-9.86a195.13,195.13,0,0,1,25.4-65.44c3.44-5.69,7.55-10.84,11.37-16.23,1-1.38,1.67-1.33,2.95-.32,4.81,3.79,4.81,3.71,1.13,8.51-.9,1.18-1.6,1.35-2.61.3-1.33-1.36-2.14-.79-3.11.59a189.37,189.37,0,0,0-33.05,83.73,2.37,2.37,0,0,0,1.25,2.75c1.17.66,2.26,1.45,3.42,2.13,2.21,1.29,2.52,1.13,2.82-1.5a177.87,177.87,0,0,1,20.71-65,182.51,182.51,0,0,1,18.78-27.86c1.44-1.78,2.55-2.27,4.21-.54,1.07,1.33,3.29,2,3.51,3.57s-2,2.42-2.64,3.94c-.89.87-1.74,2-3,.51s-2.15-.72-3.12.55a175.28,175.28,0,0,0-22.09,38.23,182,182,0,0,0-12.45,46.52c-.68,5.08-.66,5.08,4.2,6.72l1.13.37c1.18.41,1.7,0,1.84-1.26.37-3.37.83-6.73,1.33-10.08a167.55,167.55,0,0,1,21.33-59.87c3.63-6.22,7.9-12,12-17.91,2.4-2.82,4.89-5.59,7.17-8.52.84-1.07,1.37-1.06,2.23-.26,6,5.58,12.24,11,18.13,16.68,4.18,4.07,8.65,7.85,13.08,11.64,1.6,1.37,1.74,2.24.26,3.94a121.3,121.3,0,0,0-28.09,58.17,15.29,15.29,0,0,0-.12,2.35l-.16.22.22-.15a37.56,37.56,0,0,0,10.68-7.25c20.12-18,26.2-45.7,15.56-70.55-.3-.72-.54-1.47-.81-2.21l.27-.26a58.92,58.92,0,0,1,8.86,24.24,59.86,59.86,0,0,1-.86,22.59c-2.48,10.51-6.67,20.2-14.25,28.12a67.3,67.3,0,0,1-24.28,16.12A68.54,68.54,0,0,1,201.32,153.31ZM219.2,62.65c-.58.74-1.2,1.46-1.73,2.24a163.47,163.47,0,0,0-14.94,27.17A165.4,165.4,0,0,0,190,139.25c-.62,5.37-.53,5.38,4.71,5.89a62.84,62.84,0,0,0,28.73-2.73c3.36-1.08,5.07-2.59,5.71-6.51a122.56,122.56,0,0,1,26.11-58.06c.95-1.18,1-1.79-.19-2.81q-13-10.69-25.86-21.54c-1.67-1.42-2.67-1.3-3.5.68-.1.24-.06.53.2.5s.48-.29.71-.45c3,1.47,5.22,3.93,7.62,6.19A19.94,19.94,0,0,1,229,57.8c-1.81-1.32-2.91-.89-4.25.74s-2.25,3.77-4.42,4.65l-.1-.53c.31-.48,1-.87.46-1.7A2.91,2.91,0,0,0,219.2,62.65Zm6.18-7.8c-.85.37-1.28.77-1.1,1.61C225.19,56.35,225.49,55.89,225.38,54.85Zm-2.14,3.7a3.26,3.26,0,0,0,.47-.84c.08-.36-.23-.61-.55-.36a1.93,1.93,0,0,0-.53,1C222.56,58.53,222.77,58.72,223.24,58.55Zm-1,1.12a2.26,2.26,0,0,0-.64-.18c-.08,0-.2.21-.22.34s.09.46.36.36S222,59.92,222.26,59.67Z" transform="translate(-7.18 -15.45)"/><path class="cls-1" d="M215.64,172.47c-.56,5.74-2,11.32-3.07,17-3.06,15.63-6.31,31.22-9.32,46.86-1.08,5.58-3.79,9.64-9.2,11.63-6.22,2.3-12.15-.47-13.4-6.12a12.23,12.23,0,0,1,.4-5.15c1.77-9,3.84-17.89,5.35-26.91,1.88-11.22,4.4-22.3,6.47-33.47,1.41-7.61,4.9-11.31,11.85-12.4C210.75,162.93,216.2,166.78,215.64,172.47Z" transform="translate(-7.18 -15.45)"/><path class="cls-1" d="M215.13,24.37a51.48,51.48,0,0,0-19.51-.87A63.75,63.75,0,0,0,168,34a55.68,55.68,0,0,0-9.43,8.24c-7,7.33-12.8,15.46-16.34,25a66.58,66.58,0,0,0-3.85,30.24,71.06,71.06,0,0,0,6.47,22.65l0,0c-2.44-1.54-3-4.3-4.16-6.64A63.36,63.36,0,0,1,134.61,79C137.75,50.11,153,30.13,180.1,19.63c13.59-5.26,27.62-5.25,41.68-1.65,12.11,3.58,22.82,9.63,31.34,19,16.71,18.33,22.41,39.72,17,64a7.05,7.05,0,0,1-.76,1.93,79.86,79.86,0,0,0,.88-12.25c-.49-23.88-10.8-42.37-30.55-55.69C232.17,29.86,224.15,26,215.13,24.37Z" transform="translate(-7.18 -15.45)"/><path class="cls-1" d="M258.58,57.64l-.14-.51.41.25Z" transform="translate(-7.18 -15.45)"/><polygon class="cls-1" points="250.74 40.84 250.9 40.77 250.88 40.94 250.74 40.84"/><path class="cls-1" d="M167.56,60.24c1.56-4.32,4.2-8.06,6.45-12a1,1,0,0,1,1.57-.42c.51.35,1.19.63,1,1.41s-.51,1.21-1.28,1.13c-1.2-.11-1.63.75-2.14,1.54l-5.52,8.48Z" transform="translate(-7.18 -15.45)"/><path class="cls-1" d="M180.82,60.22c1.66-4.12,4.31-7.66,6.61-11.41.31-.5.67-.92,1.33-.49s1.33.68,1.22,1.56c-.08.59-.46,1.08-1.12,1-1.31-.2-1.78.73-2.36,1.58L181,60.38Z" transform="translate(-7.18 -15.45)"/><path class="cls-1" d="M195.06,58.47c1.94-2.89,3.86-5.78,5.82-8.65.42-.61,1-.32,1.44,0s1.14.69.88,1.48c-.15.46-.5,1-1,.85-1.63-.6-2,.78-2.69,1.62-1.33,1.66-2.58,3.39-3.86,5.09Z" transform="translate(-7.18 -15.45)"/><path class="cls-1" d="M194.55,60.22c-.05-.13-.16-.27-.13-.37s.18-.29.29-.29c.34,0,.33.22.21.42S194.68,60.14,194.55,60.22Z" transform="translate(-7.18 -15.45)"/><path class="cls-1" d="M180.11,61.87a2.31,2.31,0,0,1-.24-.2s0-.16.08-.17.22,0,.33,0Z" transform="translate(-7.18 -15.45)"/><path class="cls-1" d="M194.06,61.12l-.26.29a2.52,2.52,0,0,1-.15-.34s.12-.15.15-.14A1.34,1.34,0,0,1,194.06,61.12Z" transform="translate(-7.18 -15.45)"/><path class="cls-1" d="M144.87,120.07l.22.33-.2-.35Z" transform="translate(-7.18 -15.45)"/><path class="cls-1" d="M167.69,60.37l-.29.21c0-.11.11-.22.16-.34Z" transform="translate(-7.18 -15.45)"/><path class="cls-1" d="M181,60.38a2.89,2.89,0,0,1-.24.27c-.25-.19-.09-.31.08-.43Z" transform="translate(-7.18 -15.45)"/><polygon class="cls-1" points="159.74 46.15 159.7 46 159.82 46.02 159.74 46.15"/><polygon class="cls-1" points="159.2 46.98 159.31 46.93 159.29 47.05 159.2 46.98"/><path class="cls-1" d="M220.23,62.66h-1A2.91,2.91,0,0,1,220.69,61C221.18,61.79,220.54,62.18,220.23,62.66Z" transform="translate(-7.18 -15.45)"/><path class="cls-1" d="M225.38,54.85c.11,1-.19,1.5-1.1,1.61C224.1,55.62,224.53,55.22,225.38,54.85Z" transform="translate(-7.18 -15.45)"/><path class="cls-1" d="M223.24,58.55c-.47.17-.68,0-.61-.24a1.93,1.93,0,0,1,.53-1c.32-.25.63,0,.55.36A3.26,3.26,0,0,1,223.24,58.55Z" transform="translate(-7.18 -15.45)"/><path class="cls-1" d="M222.26,59.67c-.22.25-.33.46-.5.52s-.4-.11-.36-.36.14-.33.22-.34A2.26,2.26,0,0,1,222.26,59.67Z" transform="translate(-7.18 -15.45)"/><path class="cls-1" d="M225.69,54.17l.91,0c-.23.16-.46.42-.71.45S225.59,54.41,225.69,54.17Z" transform="translate(-7.18 -15.45)"/><path class="cls-1" d="M233.15,137.65l-.22.15.16-.22Z" transform="translate(-7.18 -15.45)"/><path class="cls-1" d="M208.66,59.68A37.6,37.6,0,0,1,213.8,52c.53-.63,1.16-.23,1.68.17s1,.59.73,1.29a1.11,1.11,0,0,1-1.32.75c-1.42-.3-1.88.91-2.6,1.66C211.08,57.11,210.37,58.84,208.66,59.68Z" transform="translate(-7.18 -15.45)"/><path class="cls-1" d="M207.42,61.2c.1-.38.42-.92.66-.74.57.44-.08.7-.36,1Z" transform="translate(-7.18 -15.45)"/><path class="cls-1" d="M206.65,62.79l-.32.58c-.05-.06-.16-.14-.15-.16.1-.19.22-.38.33-.56Z" transform="translate(-7.18 -15.45)"/><path class="cls-1" d="M207.72,61.45l-.62.85-.2-.2.52-.9Z" transform="translate(-7.18 -15.45)"/><path class="cls-1" d="M207.1,62.3l-.45.48-.14-.13.39-.55Z" transform="translate(-7.18 -15.45)"/><path class="cls-1" d="M202.28,130.51a16.4,16.4,0,0,1,.7-9.22,12.73,12.73,0,0,1,6-6.62c5.76-2.31,10.58,2,11.8,6.88,1.46,5.86-1.23,12.22-6.25,14.69S205.26,136.79,202.28,130.51Z" transform="translate(-7.18 -15.45)"/><path class="cls-1" d="M248.53,71.88c2,1,3.49,2.67,5.23,4a1.07,1.07,0,0,1,.2,1.78c-1.75,2.22-3.44,4.49-5.16,6.73l-.54-.31c1.14-1.85,2.22-3.74,3.46-5.52a1.68,1.68,0,0,0-.21-2.61c-1.2-1.13-2.23-2.43-3.33-3.66Z" transform="translate(-7.18 -15.45)"/><path class="cls-1" d="M221,114c.65-.8.87.08,1.1.36,3.84,4.69,4.2,13.76.66,18.9,2.71-6.73,3.06-13.25-1.69-19.29Z" transform="translate(-7.18 -15.45)"/><path class="cls-1" d="M199.76,135.53a19.5,19.5,0,0,1,.82-18.22c-2.05,4.91-3.14,9.92-1.34,15.18.36,1.06.72,2.12,1.07,3.18,0,0-.14.09-.2.07A1.8,1.8,0,0,1,199.76,135.53Z" transform="translate(-7.18 -15.45)"/><path class="cls-1" d="M206.2,111.74c-.15-1.33,1.09-1.23,1.75-1.54a11.09,11.09,0,0,1,7.46-.7l1.57.72c-2.09-.14-4.08-1.07-6.18-.24a2.4,2.4,0,0,0-1.86.49,2,2,0,0,0-1.43.61l-1.34.59Z" transform="translate(-7.18 -15.45)"/><path class="cls-1" d="M212.68,141.52c1.7-.84,3.49-1.47,5.13-2.43A7.79,7.79,0,0,1,212.68,141.52Z" transform="translate(-7.18 -15.45)"/><path class="cls-1" d="M205,140.36l2.44.92A2,2,0,0,1,205,140.36Z" transform="translate(-7.18 -15.45)"/><path class="cls-1" d="M221.1,136a3.18,3.18,0,0,1,1.4-2.05c-.21.85-.45,1.68-1.48,2l0,.13Z" transform="translate(-7.18 -15.45)"/><path class="cls-1" d="M218.89,65.56c0-.73.1-1.33,1-1.44A1.69,1.69,0,0,1,218.89,65.56Z" transform="translate(-7.18 -15.45)"/><path class="cls-1" d="M203.68,139.48l.5.06.45.76c-.12,0-.32.13-.35.09C204.06,140.11,203.29,140.17,203.68,139.48Z" transform="translate(-7.18 -15.45)"/><path class="cls-1" d="M219.37,112c-.48,0-.85-.21-.9-.79.58,0,1,.17.86.85Z" transform="translate(-7.18 -15.45)"/><path class="cls-1" d="M218,66.7c.17-.48.05-1.17.87-1.16Z" transform="translate(-7.18 -15.45)"/><path class="cls-1" d="M201.33,136.67l0,.5a.64.64,0,0,1-.85-.8C200.8,135.88,201,136.67,201.33,136.67Z" transform="translate(-7.18 -15.45)"/><path class="cls-1" d="M202.71,139c.52-.2.77.17,1,.5C203.11,140,202.94,139.43,202.71,139Z" transform="translate(-7.18 -15.45)"/><path class="cls-1" d="M219.85,64.14a.76.76,0,0,1,.48-1C220.54,63.68,220.31,64,219.85,64.14Z" transform="translate(-7.18 -15.45)"/><path class="cls-1" d="M221.1,114c-.1-.49-1.35-.85-.16-1.48l0,0c-.29.51,1,.93.08,1.48Z" transform="translate(-7.18 -15.45)"/><path class="cls-1" d="M201.32,137.1c.35.26.73.51.5,1C201.43,137.9,200.88,137.74,201.32,137.1Z" transform="translate(-7.18 -15.45)"/><path class="cls-1" d="M202.24,138.55q.66-.13.54.54A.57.57,0,0,1,202.24,138.55Z" transform="translate(-7.18 -15.45)"/><path class="cls-1" d="M247.27,71.33c-.09-.12-.28-.3-.25-.35.18-.31.37-.13.54,0Z" transform="translate(-7.18 -15.45)"/><path class="cls-1" d="M247.56,71l.53.45-.37.34-.45-.49Z" transform="translate(-7.18 -15.45)"/><polygon class="cls-1" points="240.78 69.72 240.93 69.66 240.91 69.82 240.78 69.72"/><path class="cls-1" d="M248.18,72.31c-.15-.16-.3-.33-.46-.49l.37-.34.44.41Z" transform="translate(-7.18 -15.45)"/><path class="cls-1" d="M220.94,112.53c0,.28-.07.56-.44.56-.05,0-.15-.1-.14-.15,0-.39.36-.31.6-.38Z" transform="translate(-7.18 -15.45)"/><path class="cls-1" d="M219.33,112.06c.2-.17.39-.18.53.06,0,0,0,.15-.06.23l-.43-.35Z" transform="translate(-7.18 -15.45)"/><path class="cls-1" d="M217.92,110.83a1.51,1.51,0,0,1-.29.13s-.1-.09-.15-.14a1.3,1.3,0,0,1,.3-.13S217.88,110.78,217.92,110.83Z" transform="translate(-7.18 -15.45)"/><path class="cls-1" d="M201.77,138.07c.46-.11.61.11.54.54A.54.54,0,0,1,201.77,138.07Z" transform="translate(-7.18 -15.45)"/><path class="cls-1" d="M206.17,111.67l-1.31.87c.32-.49.37-1.49,1.34-.81Z" transform="translate(-7.18 -15.45)"/><path class="cls-1" d="M201.69,115.17c.59.81-.25,1-.76,1.38l.8-1.32S201.69,115.17,201.69,115.17Z" transform="translate(-7.18 -15.45)"/><path class="cls-1" d="M202.89,114.33c-1-.62-.11,1.53-1.2.84,0,0,.05.06,0,.06.08-.67,1.26.11,1.12-.85Z" transform="translate(-7.18 -15.45)"/><path class="cls-1" d="M202.85,114.38l-.06-.08s.1,0,.1,0Z" transform="translate(-7.18 -15.45)"/></svg>