<svg id="Layer_1" data-name="Layer 1" xmlns="http://www.w3.org/2000/svg" viewBox="0 0 802.42 289.38"><defs><style>.cls-1{fill:#346275;}</style></defs><title>m-lipa</title><path class="cls-1" d="M420.14,133.31c-5.22,8.51-8.08,18-12.24,26.87-3.13,6.69-6.44,13.4-8.6,20.43-2,6.5-6.2,6.79-11.69,6.78-5.73,0-9.87-.49-12.35-7-5.31-14-11.66-27.7-17.64-41.49-.86-2-1-4.53-4.27-5.67-1.24,17.44-2.56,34.58-2.68,51.81-.11,16.36-.12,16.36-16.66,16.3-8.86,0-9-.24-8.61-8.88,1.47-30.95,3.59-61.85,6.9-92.67,1.08-10,1.1-9.12,11.33-10.23,11.27-1.23,17.28,2.9,21.32,13.24,5.89,15,13,29.63,19.69,44.37.79,1.76.9,4.65,3.36,4.62s2.54-3,3.31-4.78c7.27-17,14.8-33.9,22.91-50.54,2.48-5.09,5.53-7,11.25-6.82,16.23.36,15.94.13,17.62,16.31,3,29.22,4.88,58.51,6.45,87.83.31,5.83-1.19,7.86-7.15,7.64-18.87-.68-17.78,3.45-18.23-17.67-.32-15.25-1.51-30.48-2.37-45.71C421.71,136.53,422.38,134.76,420.14,133.31Z" transform="translate(-6.84 -4.2)"/><path class="cls-1" d="M650.06,175.7c0-16.18.29-32.37-.14-48.54-.17-6.09,1.83-8.61,7.78-9.58,13.07-2.12,26.07-4.47,39.3-1.64,16.93,3.63,27.19,14,30.77,30.87a58.06,58.06,0,0,1-3.42,36c-6.79,15.64-23.93,23.32-42.67,18.54-6.48-1.65-7,.58-6.83,5.74.25,7.16-.07,14.33.12,21.49.09,3.57-1.2,5.21-4.81,4.88a12.89,12.89,0,0,0-1.39,0c-18.71.47-18.71.47-18.71-18.19Zm24.86-17.92c0,5.55.15,11.11,0,16.65-.13,3.34,1.23,5.51,4.32,6.13,12.14,2.43,20.65,1.28,24-12.57a33.42,33.42,0,0,0-.18-17.14c-3.25-11.64-10.83-16.52-22.9-15.3-3.78.38-5.37,1.75-5.25,5.57C675.06,146.67,674.92,152.22,674.92,157.78Z" transform="translate(-6.84 -4.2)"/><path class="cls-1" d="M809.22,169c0,8.11-.09,16.21,0,24.32.07,3.89-1.39,5.87-5.41,6.56-14,2.4-28.09,3.63-42.28,2.08-16.76-1.82-25.57-11.78-25.15-28.17.31-12.46,7.54-20.74,21.06-24,7.51-1.79,15.16-2.54,22.8-1.24,5.81,1,6-1.87,4.41-5.86-2-5.12-6.11-7.42-11.42-7.58-7-.21-14-.51-20.73,1.66-4.13,1.33-5.85,0-6.48-4.33-2.18-14.74-2.34-15,12.48-17.16,9.88-1.46,19.87-1.83,29.71.93,12,3.37,19.29,11.18,20.21,23.62.72,9.66.15,19.42.15,29.13ZM786,174.29c-1-3.27,1.93-8.35-3.59-9.19s-11.06-1.21-16.35,1.16c-5,2.26-6.69,6.28-5.09,11.32,1.75,5.48,11.34,8,21.07,6.13C788.38,182.46,784.76,177.45,786,174.29Z" transform="translate(-6.84 -4.2)"/><path class="cls-1" d="M525.1,145.43c0-16.2.17-32.4-.09-48.59-.08-5.41,1.69-7.21,7.2-7.22,19.16,0,19.15-.2,19.16,18.8,0,21.29.13,42.58-.1,63.87,0,5.1,1.47,6.92,6.71,6.78,12.06-.32,24.14.06,36.21-.17,4.44-.08,6.17,1.24,6.07,5.89-.44,20.07,2.27,16.21-15.78,16.45-17.18.23-34.36-.16-51.53.16-6.16.12-8.07-2.08-8-8.07C525.31,177.37,525.1,161.4,525.1,145.43Z" transform="translate(-6.84 -4.2)"/><path class="cls-1" d="M633.63,159c0,11.79-.24,23.59.11,35.37.16,5.59-1.93,7.17-7.3,7-20.79-.51-17.51,2.66-17.68-17.62-.17-20.11.15-40.23-.15-60.34-.08-5.56,1.76-7.1,7.17-7.09,17.86,0,17.86-.15,17.86,17.67Q633.64,146.5,633.63,159Z" transform="translate(-6.84 -4.2)"/><path class="cls-1" d="M486,164.24c-6,0-12.05-.12-18.07,0-3.78.1-5.57-1.34-5.53-5.22C462.59,138,460,142.15,478,141.79c8.57-.18,17.15.08,25.72-.07,4.06-.06,5.67,1.41,5.89,5.63.91,16.9,1,16.9-16,16.89Z" transform="translate(-6.84 -4.2)"/><path class="cls-1" d="M635.6,92.6c.06,8.59-5.64,14.39-14.33,14.59a14.51,14.51,0,0,1-15-14.19c0-8.28,6.08-14.31,14.66-14.42C629.71,78.47,635.54,84,635.6,92.6Z" transform="translate(-6.84 -4.2)"/><path class="cls-1" d="M125.73,281.69l-8.33-.49c-1.53-.48-3-1.05-4.57-1.41-12.16-2.86-19.94-13.26-18.64-25.58,2.69-25.74,5.56-51.46,8.43-77.18,5.29-47.31,10.8-94.6,15.79-141.94.93-8.89,2.21-17.32,7.32-24.82,7.67-5.78,16.08-6.8,25.61-5.66q54.6,6.48,109.34,11.86c20.76,2.07,28.86,12.23,26.46,32.94-4.88,42.06-9.26,84.18-13.84,126.28-3.5,32.2-6.84,64.42-10.57,96.6-1.77,15.34-13.58,23-31,21q-45.64-5.19-91.33-10.16c-3-.33-6-.39-9-.58C129.67,281,127.68,281.46,125.73,281.69ZM265,73c.78-12.43.8-12.62-9.39-13.73-14.75-1.62-29.53-2.93-44.3-4.38-23.76-2.34-47.54-4.52-71.28-7.13-6.74-.75-8.53,1.37-8.92,8.05-1,16.37-2.95,32.68-4.57,49q-6.72,67.63-13.56,135.25c-.47,4.58.9,6.06,5.45,6.32,8.32.46,16.61,1.56,24.91,2.38,32.07,3.16,64.14,6.26,96.2,9.54,5.06.52,7.5-.44,8-6.23,1.67-20.5,3.88-41,5.9-61.43C257.31,150.62,261.26,110.59,265,73ZM183.38,31.31c-3.32-1.35-3.93,1.19-4.17,4.43-.23,3.09,0,5.42,4,5.75q17.29,1.44,34.56,3.26c4.5.48,4-2.76,4.5-5.31.61-2.85-.44-4.21-3.5-4.5C207.26,33.86,195.75,32.6,183.38,31.31Z" transform="translate(-6.84 -4.2)"/><path class="cls-1" d="M8.73,49.67l5.69.52a6,6,0,0,0,8,0,20.88,20.88,0,0,0,9.89-1.81c3,.16,5.7-.49,7.65-3l4.92-1.94c1.67,0,2.63-1,3.4-2.24l4.94-1.5a194,194,0,0,1,11,35.63c9.62,47.48,14,95.52,14.49,143.9A126.05,126.05,0,0,0,81.49,246c3.45,15.18,9.71,28.55,25.34,35.07a2.16,2.16,0,0,1,1.58,2.62l-10.61-.88a2.68,2.68,0,0,0-2.73-1.31c-14.27-8.26-20.59-22.29-25.82-36.69-8.66-23.82-12.2-48.78-15.67-73.77-4.23-30.48-14.41-59.18-27.73-86.85-5.64-11.7-12.66-22.59-19-33.87Z" transform="translate(-6.84 -4.2)"/><path class="cls-1" d="M54.58,36.71c-1.09-8-6.88-13.84-11.15-22.17C70,24,95.07,24.88,118.85,10,105,85.94,100,163.05,88.36,239.33c-1.53-.57-1.55-1.81-1.64-2.9-1.8-20.61-4.36-41.2-5.14-61.84-.93-24.71-1.83-49.32-5.8-73.81C72.51,80.61,63.91,62.1,59.15,42.45,58.55,40,57.35,37.64,54.58,36.71Z" transform="translate(-6.84 -4.2)"/></svg>