<svg id="Layer_1" data-name="Layer 1" xmlns="http://www.w3.org/2000/svg" viewBox="0 0 237.33 106.94"><defs><style>.cls-1{fill:#346275;}</style></defs><title>airtel</title><path class="cls-1" d="M261.18,102a2.81,2.81,0,0,1-2.73-2.88V66.8l-7.31,1.12V98.85a8,8,0,0,0,7.8,8.15H263v-5Z" transform="translate(-25.67 -20.63)"/><polygon class="cls-1" points="151 86.36 158.3 86.36 158.3 55.63 151 56.75 151 86.36"/><path class="cls-1" d="M188.6,81.65V107h7.31V86.9l0-2.38c0-3.75,8.43-3,8.43-3l2.63-5.75C195.26,72.43,188.6,81.65,188.6,81.65Z" transform="translate(-25.67 -20.63)"/><path class="cls-1" d="M216.54,99.09V81.29h4.39V75.71h-4.39V66.8l-7.31,1.12V98.85A8,8,0,0,0,217,107h4.06v-5h-1.82A2.81,2.81,0,0,1,216.54,99.09Z" transform="translate(-25.67 -20.63)"/><path class="cls-1" d="M180.32,64.1a4.52,4.52,0,1,0,4.52,4.52A4.52,4.52,0,0,0,180.32,64.1Z" transform="translate(-25.67 -20.63)"/><path class="cls-1" d="M234.92,101.31c-4.85-1.86-4.49-9.1-4.49-9.1H248c0-9.09-2.19-16.95-11-16.95s-14.08,6.48-14.08,15.57S228.49,107,237.31,107c3.51,0,8.31-1.17,10.94-3.14l-2.5-4.35S239.77,103.16,234.92,101.31Zm1-20.48c4.19,0,5,5.92,5,5.92H230.91S231.75,80.83,235.94,80.83Z" transform="translate(-25.67 -20.63)"/><path class="cls-1" d="M162.21,75.48a40,40,0,0,0-6.2.64,18.34,18.34,0,0,0-5.85,2.57l2.32,4.78a12,12,0,0,1,7.66-2.82c6.23,0,5.35,6.25,5.35,6.25-12.13-2.49-18.09,3.74-17.92,10.16.08,2.91.47,5.87,3.79,8.06,10.62,7,20.93-3.19,20.93-3.19V85C172.29,79.9,167.77,75.48,162.21,75.48Zm3.12,25.41s-4.79,2.24-7.86.4-2.72-6.87.18-8.42,7.68-.6,7.68-.6Z" transform="translate(-25.67 -20.63)"/><path class="cls-1" d="M47.64,43C14.59,73,26.51,82.92,34.42,86.75S52.86,85.32,66,75s43.66-30.18,50.85-20.28,7.34,29.54-23.47,55.4-37.2,10.74-22-1.12,12.41-19,5.22-20c-7.54-1.09-14,.71-20.75,13,0,0-10.26,19.82,2.87,24.9,9.15,3.54,36.16-7.36,56-27.34,14.62-14.72,25.31-32.32,20.84-55.8C129.73,13,80.69,13.09,47.64,43Z" transform="translate(-25.67 -20.63)"/></svg>