<svg width="326" height="292" viewBox="0 0 326 292" xmlns="http://www.w3.org/2000/svg"><g fill="#346275"><path d="M136.97 183.77C135.186505 183.213539 133.328278 182.933625 131.46 182.939894 126.771238 182.935962 122.240504 184.634543 118.71 187.72 114.976754 190.858463 112.325005 195.091465 111.13 199.82L151.89 199.82C149.643333 191.373333 144.673333 186.04 136.98 183.82M268.92 182.939637C263.120531 182.904735 257.602908 185.438375 253.85 189.86 245.611524 199.450299 245.611524 213.619701 253.85 223.21 257.607946 227.602489 263.099332 230.131248 268.88 230.131248 274.660668 230.131248 280.152054 227.602489 283.91 223.21 292.230043 213.650075 292.230043 199.419925 283.91 189.86 280.176272 185.452677 274.686229 182.919937 268.91 182.939637M67.71 223.29C75.9099494 213.708184 75.9099494 199.581816 67.71 190 63.9557455 185.601294 58.4629957 183.067966 52.68 183.067966 46.8970043 183.067966 41.4042545 185.601294 37.65 190 33.5548597 194.557909 31.3487517 200.504032 31.48 206.63L31.48 206.71C31.3428803 212.863949 33.5482577 218.840272 37.65 223.43 41.4373762 227.783511 46.9302254 230.275555 52.7005787 230.258368 58.470932 230.241002 63.9487604 227.716112 67.71 223.34"/><path d="M305.29 153.65 15.44 153.65C6.93289116 153.671982.0419823034 160.562891.02 169.07L.02 242.07C.02 243.47.02 249.18.02 249.18L.02 249.18.02 291.02 14.57 263.37 14.57 171.09C17.6380837 168.929553 21.1564255 167.493495 24.86 166.89 26.6722639 166.468262 28.5206462 166.220472 30.38 166.15 30.7382896 166.146287 31.096246 166.17305 31.45 166.23L31.45 173.05C37.6258786 168.563378 45.0766497 166.173243 52.71 166.23 63.2033333 166.23 72.1766667 170.153333 79.63 178 94.4554175 194.196276 94.4554175 219.033724 79.63 235.23 72.1566667 243.136667 63.1833333 247.09 52.71 247.09 45.0810557 247.148038 37.635259 244.753745 31.47 240.26L31.47 260.09 34.11 257.48 305.31 257.48C313.813189 257.447015 320.693563 250.553237 320.71 242.05L320.71 169.05C320.687995 160.538999 313.791014 153.646487 305.28 153.63M169.1 213.32 111.1 213.32C112.27297 218.010407 114.897901 222.210298 118.6 225.32 122.176054 228.398278 126.721926 230.118911 131.44 230.18 132.6 230.29 133.7 230.34 134.74 230.34 136.934695 230.378234 139.123563 230.1021 141.24 229.52 142.997778 228.976975 144.707067 228.287907 146.35 227.46 152.042143 229.496125 156.749187 233.617022 159.52 238.99L158.62 239.65 158.36 239.82 155.74 241.46C155.57 241.57 155.37 241.68 155.16 241.79 154.546593 242.177924 153.912301 242.531792 153.26 242.85 152.93 243.02 152.69 243.16 152.52 243.27 152.35 243.38 152.03 243.49 151.37 243.77 150.88 243.99 150.11 244.28 149.06 244.67 148.528085 244.902754 147.979978 245.096596 147.42 245.25 146.92 245.4 146.23 245.6 145.36 245.82 144.97 245.94 144.67 246.02 144.45 246.07L144.12 246.15C143.85 246.2 143.6 246.26 143.38 246.32L142.97 246.4C142.74 246.46 142.48 246.51 142.15 246.57 141.848967 246.617118 141.544698 246.640524 141.24 246.64 140.56193 246.76194 139.877502 246.845406 139.19 246.89 138.46 246.89 137.89 247.01 137.45 247.06L131.45 247.06C118.443333 247.06 108.153333 241.433333 100.58 230.18 97.1218047 225.148029 94.8388728 219.403106 93.9 213.37 93.2467041 208.893711 93.2467041 204.346289 93.9 199.87 95.2633351 190.619521 99.8071104 182.133092 106.75 175.87 113.447628 169.617446 122.287693 166.170894 131.45 166.24 133.798143 166.245493 136.140993 166.463044 138.45 166.89 146.233472 168.386448 153.317569 172.377835 158.63 178.26 164.228423 184.251052 167.875955 191.800676 169.09 199.91 169.743296 204.386289 169.743296 208.933711 169.09 213.41M230.56 224.28C230.56 230.773333 227.513333 236.183333 221.42 240.51 218.5196 242.679444 215.259821 244.321181 211.79 245.36 208.046216 246.445625 204.168011 246.997731 200.27 247L200.19 247C199.75 247 199.09 247 198.19 246.91 186.43 246.483333 177.673333 242.173333 171.92 233.98 170.38 231.793333 169.61 230.396667 169.61 229.79 174.056612 226.443329 179.312575 224.338183 184.84 223.69 184.988004 224.177393 185.182219 224.649536 185.42 225.1 185.425051 225.16165 185.453711 225.218969 185.5 225.26 185.545186 225.353059 185.606078 225.437631 185.68 225.51 188.026667 229.35 192.693333 231.27 199.68 231.27L200.76 231.27C204.075779 231.394165 207.313537 230.245745 209.81 228.06 211.02223 226.784495 211.750859 225.125625 211.87 223.37 211.87 220.403333 209.236667 217.873333 203.97 215.78 201.457103 214.724553 198.834174 213.953103 196.15 213.48 191.909891 212.724098 187.822365 211.278262 184.05 209.2 177.903333 205.746667 173.7 201.493333 171.44 196.44 170.50952 194.569831 169.978266 192.526545 169.88 190.44L169.88 189C169.88 182.506667 172.9 177.07 178.94 172.69 181.857228 170.518757 185.148522 168.901922 188.65 167.92 192.383431 166.751814 196.268264 166.138597 200.18 166.1 200.68 166.1 201.33 166.1 202.18 166.19 213.986667 166.623333 222.716667 170.903333 228.37 179.03 229.086378 179.972903 229.718795 180.976738 230.26 182.03L230.84 183.26C230.020197 183.879969 229.169075 184.457397 228.29 184.99 224.476988 187.507034 220.085516 189.01101 215.53 189.36 215.438808 188.894997 215.269766 188.448725 215.03 188.04 214.957756 187.896873 214.874155 187.759767 214.78 187.63 212.366667 183.79 207.7 181.866667 200.78 181.86L199.87 181.86C196.016667 181.86 192.943333 182.933333 190.65 185.08 189.446288 186.32408 188.720312 187.9531 188.6 189.68 188.6 192.68 191.19 195.2 196.41 197.35 198.966825 198.368505 201.615689 199.138719 204.32 199.65 208.545841 200.41744 212.627472 201.834204 216.42 203.85 222.573333 207.31 226.773333 211.563333 229.02 216.61 229.959817 218.508698 230.491242 220.583297 230.58 222.7L230.56 224.28ZM306.96 247.000298 290.15 247.000298 290.15 240.08C283.99924 244.605028 276.555886 247.031218 268.92 247.000298 258.38 247.000298 249.38 243.043333 241.92 235.13 227.091197 218.938876 227.091197 194.101124 241.92 177.91 254.465574 164.359894 275.131197 162.256054 290.15 173L290.15 166.16C290.506689 166.098584 290.868065 166.06847 291.23 166.069944 293.062654 166.144081 294.884148 166.391858 296.67 166.81 300.370859 167.417168 303.887697 168.849194 306.96 171L306.96 247.000298ZM62.59 46C74.33 54.34 80.1966667 66.0066667 80.1900057 81L80.1900057 123.19 62.59 123.19 62.59 81C62.7237587 74.5902075 60.414248 68.369544 56.13 63.6 52.2222434 59.0390785 46.5216434 56.4065265 40.5156242 56.3892402 34.5096049 56.371954 28.7939457 58.9716482 24.86 63.51 20.5680185 68.1958669 18.2316193 74.3463573 18.33 80.7L18.33 123.23.71 123.23.71 5.24C3.88831061 2.95087048 7.56673742 1.45276003 11.44.87 13.4054902.378133981 15.4157529.0866458884 17.44 0 17.7279642.00290331181 18.0153568.0262957296 18.3.07L18.3 46C31.4782584 36.3589201 49.3817416 36.3589201 62.56 46M152.6 38.83C152.967673 38.7774044 153.338584 38.75 153.71 38.75 155.627 38.830213 157.532133 39.0913736 159.4 39.53 163.256482 40.1788223 166.921109 41.6747276 170.13 43.91L170.13 123.24 152.6 123.24 152.6 116C146.18233 120.72781 138.411016 123.259799 130.44 123.22 119.433333 123.22 110.036667 119.096667 102.25 110.85 94.6012195 102.817152 90.4324574 92.0897774 90.65 81 90.4291268 69.8888419 94.5970506 59.1384729 102.25 51.08 110.043333 42.9 119.44 38.8033333 130.44 38.79 138.406125 38.7713125 146.170005 41.2973763 152.6 46L152.6 38.83ZM130.44 105.630365C136.513333 105.630365 141.73 103.22 146.09 98.4 150.414486 93.6515358 152.745605 87.4208952 152.6 81 152.748724 74.5666069 150.417876 68.3223688 146.09 63.56 142.163148 58.9847547 136.434348 56.3521571 130.405 56.3521571 124.375652 56.3521571 118.646852 58.9847547 114.72 63.56 110.421007 68.3358908 108.113113 74.5761492 108.27 81 108.113524 87.4099775 110.418037 93.636456 114.71 98.4 118.621233 103.018416 124.378041 105.666109 130.43 105.630365M201.47 123.23 183.86 123.23 183.86 5.24C187.040096 2.94736376 190.722632 1.44897621 194.6.87 196.565884.380135453 198.575944.0886768296 200.6 0 200.89128.00296542481 201.181993.0263561459 201.47.07L201.47 123.23ZM235.98 96.18C235.98 96.18 232.57 91.91 234.98 82.83 237.39 73.75 239.98 60.26 264.25 48.83 269.37 46.76 277.58 45.93 283.57 52.41 289.56 58.89 303.23 71.74 297.92 97.9 296.73 104.23 295.71 108.16 283.57 112.1 271.43 116.04 249.36 113.65 236.01 96.2"/><path d="M226.23,78.4 C226.23,78.4 235.13,35.29 280.97,38.01 C300.46,39.39 318.59,52.74 325.42,81.46 C323.05,59.57 315.52,25.37 276.17,24.68 C264.56,25.02 224.86,32.21 226.23,78.4"/><path d="M292.87,47.72 C292.87,47.72 326.22,76.47 301.53,115.18 C290.85,131.56 270.36,140.9 241.94,132.9 C262.22,141.45 295.77,151.52 315.49,117.49 C320.86,107.16 333.89,68.99 292.87,47.72"/><path d="M286.14,120.46 C286.14,120.46 244.63,135.08 223.32,94.4 C214.44,77 216.51,54.57 237.6,33.88 C220.08,47.24 194.65,71.32 214.37,105.38 C220.65,115.18 247.28,145.46 286.14,120.46"/></g></svg>