<?xml version="1.0" encoding="UTF-8"?>
<svg width="137px" height="40px" viewBox="0 0 137 40" version="1.1" xmlns="http://www.w3.org/2000/svg" xmlns:xlink="http://www.w3.org/1999/xlink">
    <!-- Generator: Sketch 41 (35326) - http://www.bohemiancoding.com/sketch -->
    <title>m-pesa</title>
    <desc>Created with Sketch.</desc>
    <defs></defs>
    <g id="Payments" stroke="none" stroke-width="1" fill="none" fill-rule="evenodd">
        <g id="m-pesa" transform="translate(-27.000000, 0.000000)" fill="#346275">
            <g transform="translate(27.000000, 0.000000)" id="Page-1">
                <g>
                    <g>
                        <g id="m-pesa">
                            <g id="Mobilni">
                                <path d="M13.888916,19.0422363 C15.8967285,19.2976074 23.5424805,8.13793945 23.5424805,8.13793945 C23.5424805,8.13793945 34.5197754,13.6569824 36.7072754,14.8549805 C35.5476074,18.9685059 25.5812988,23.7490234 21.2585449,24.1569824 C16.935791,24.5649414 17.2853692,24.728119 11.1518555,24.1569824 C5.01834175,23.5858458 0,22.3054199 0,22.3054199 L8.90795898,14.8549804 C8.90795898,14.8549804 11.8811035,18.7868652 13.888916,19.0422363 L13.888916,19.0422363 Z" id="Polygon"></path>
                                <path d="M26,24.0250633 C26.9892557,23.6604633 28.002436,23.2234794 29,22.7329384 L29,35.9999745 C29,38.2091276 27.2157067,40 25.009947,40 L8.99005301,40 C6.78640758,40 5,38.2035752 5,35.9999745 L5,4.00002553 C5,1.79087243 6.78429328,0 8.99005301,0 L25.009947,0 C27.2135924,0 29,1.79642476 29,4.00002553 L29,9.70116329 C28.0967277,9.24396696 27.1726199,8.77711159 26.2485208,8.31097317 C26.1647638,8.26872404 26.0819084,8.22693572 26,8.18563074 L26,5 L8,5 L8,31 L26,31 L26,24.0250633 L26,24.0250633 Z M15,34.0093689 C15,33.4519098 15.4433532,33 16.0093689,33 L17.9906311,33 C18.5480902,33 19,33.4433532 19,34.0093689 L19,35.9906311 C19,36.5480902 18.5566468,37 17.9906311,37 L16.0093689,37 C15.4519098,37 15,36.5566468 15,35.9906311 L15,34.0093689 L15,34.0093689 Z M21,35 C21,34.4477153 21.4438648,34 22,34 C22.5522847,34 23,34.4438648 23,35 C23,35.5522847 22.5561352,36 22,36 C21.4477153,36 21,35.5561352 21,35 L21,35 Z M11,35 C11,34.4477153 11.4438648,34 12,34 C12.5522847,34 13,34.4438648 13,35 C13,35.5522847 12.5561352,36 12,36 C11.4477153,36 11,35.5561352 11,35 L11,35 Z" id="Combined-Shape"></path>
                            </g>
                            <path d="M129.01416,26.5150002 C127.622153,26.5150002 125.649362,26.1235036 124.808358,25.3985 C123.967354,24.6734964 122.681641,22.1914061 122.681641,19.0745848 C122.681641,15.9577635 123.672522,14.6046517 124.329858,13.8313145 C124.987195,13.0579773 125.857186,12.4489833 126.939858,12.0043145 C128.02253,11.5596456 129.269518,11.3373145 130.680858,11.3373145 C132.459534,11.3373145 134.451002,11.6995632 136.152343,12.4729004 L136.152343,26.5150002 L133.353516,26.5150002 L133.353516,24.8306883 C132.96814,26.0377196 130.444834,26.5150002 129.01416,26.5150002 L129.01416,26.5150002 Z M132.306153,21.7225343 L132.306153,15.0142822 C131.861484,14.7629476 131.120623,14.3028564 130.501953,14.3028564 C128.259275,14.3028564 126.633057,16.9044189 126.633057,18.9959717 C126.633057,21.0875244 128.007967,22.8193359 129.013306,22.8193359 C129.786643,22.8193359 130.671032,22.8149839 131.328369,22.3896484 L132.306153,21.7225343 L132.306153,21.7225343 Z M47.7329102,26 L47.7329102,12.9160156 C49.8758245,11.8398384 51.9809467,11.3017578 54.0483398,11.3017578 L54.1049805,11.3017578 C55.6720456,11.3017578 56.9794869,11.6557582 58.0273438,12.3637695 C59.8209725,11.6557582 61.5579343,11.3017578 63.2382812,11.3017578 C65.1923926,11.3017578 66.7145942,11.8327584 67.8049316,12.8947754 C68.8952691,13.9567924 69.4404297,15.4270739 69.4404297,17.3056641 L69.4404297,26 L65.9711914,26 L65.9711914,17.0649414 C65.9711914,16.1398066 65.7375512,15.4412458 65.2702637,14.9692383 C64.8029762,14.4972307 63.9321353,14.2612305 62.6577148,14.2612305 C61.6570588,14.2612305 60.6705778,14.3745106 59.6982422,14.6010742 C60.1041687,15.0636416 60.3071289,15.9651626 60.3071289,17.3056641 L60.3071289,26 L56.8662109,26 L56.8662109,16.9799805 C56.8662109,16.0926062 56.6372907,15.4270856 56.1794434,14.9833984 C55.721596,14.5397113 54.8649151,14.3178711 53.609375,14.3178711 C52.7786417,14.3178711 51.9762408,14.3933912 51.2021484,14.5444336 L51.2021484,26 L47.7329102,26 L47.7329102,26 Z M71.3115234,19.7216797 L71.3115234,16.9887695 L77.3115234,16.9887695 L77.3115234,19.7216797 L71.3115234,19.7216797 L71.3115234,19.7216797 Z M79.8486328,31.3666994 L79.8486328,16.2011719 L79.8486328,12.038086 C79.8486328,11.2980957 83.5621338,11.1365967 85.7109375,11.1365967 C87.8597412,11.1365967 89.7303028,11.7444647 90.3769531,12.0654299 C91.0236035,12.386395 91.5782041,12.8017555 92.0407715,13.3115236 C92.5033389,13.8212918 92.9045393,14.5694126 93.2443848,15.5559084 C93.5842302,16.5424042 93.7541504,17.6822854 93.7541504,18.9755861 C93.7541504,21.335624 93.1735898,23.1481059 92.0124512,24.4130861 C90.8513126,25.6780664 87.8727322,26.2832031 85.7109375,26.2832031 C84.8990845,26.2832031 84.1061237,26.198243 83.3320312,26.0283203 L83.3320312,31.3666992 L79.8486328,31.3666994 L79.8486328,31.3666994 Z M83.3320312,23.4228516 C84.1344441,23.5361334 84.8471649,23.5927734 85.4702148,23.5927734 C86.5935929,23.5927734 87.4502737,23.2647331 88.0402832,22.6086426 C88.6302927,21.9525521 88.925293,20.7937909 88.925293,19.1323242 C88.925293,17.433097 88.7034527,16.2058957 88.2597656,15.4506836 C87.8160785,14.6954715 87.0419977,14.3178711 85.9375,14.3178711 C84.2005121,14.3178711 83.3320312,14.8370716 83.3320312,15.8754883 L83.3320312,23.4228516 L83.3320312,23.4228516 Z M95.9345703,18.9199219 C95.9345703,16.5976446 96.4514108,14.7426827 97.4851074,13.3549805 C98.518804,11.9672782 100.159006,11.2734375 102.405762,11.2734375 C104.529796,11.2734375 106.136957,11.9483982 107.227295,13.2983398 C108.317632,14.6482815 108.862793,16.3097232 108.862793,18.2827148 C108.862793,19.0945679 108.843913,19.6940085 108.806152,20.0810547 L99.50293,20.0810547 C99.597331,21.3365948 99.972572,22.1767557 100.628662,22.6015625 C101.284753,23.0263693 102.136714,23.2387695 103.18457,23.2387695 C104.883798,23.2387695 106.526359,22.8658891 108.112305,22.1201172 L108.112305,24.9238281 C106.507479,25.7923221 104.690277,26.2265625 102.660645,26.2265625 C102.018714,26.2265625 101.414554,26.1746424 100.848145,26.0708008 C100.281735,25.9669591 99.689375,25.7498389 99.071045,25.4194336 C98.452715,25.0890283 97.9193545,24.6689479 97.4709473,24.1591797 C97.0225401,23.6494115 96.6543797,22.9437708 96.3664551,22.0422363 C96.0785305,21.1407019 95.9345703,20.0999408 95.9345703,18.9199219 L95.9345703,18.9199219 Z M99.50293,17.6738281 L105.336914,17.6738281 C105.242513,16.6731721 104.947512,15.8282912 104.451904,15.1391602 C103.956296,14.4500291 103.274256,14.1054688 102.405762,14.1054688 C101.537268,14.1054688 100.859947,14.386309 100.373779,14.947998 C99.887612,15.5096871 99.597331,16.418288 99.50293,17.6738281 L99.50293,17.6738281 Z M110.723145,15.8188477 C110.723145,14.3650643 111.235265,13.2487832 112.259521,12.4699707 C113.283778,11.6911582 114.560539,11.3017578 116.089844,11.3017578 C117.524747,11.3017578 118.841628,11.6463182 120.040527,12.3354492 L120.040527,14.9833984 C119.058752,14.520831 117.94483,14.2895508 116.69873,14.2895508 C115.037264,14.2895508 114.206543,14.6954712 114.206543,15.5073242 C114.206543,15.9132507 114.442543,16.2318511 114.914551,16.4631348 C115.386558,16.6944185 115.962399,16.8973787 116.64209,17.0720215 C117.321781,17.2466643 117.999101,17.4826645 118.674072,17.7800293 C119.349043,18.0773941 119.924884,18.5800746 120.401611,19.2880859 C120.878339,19.9960973 121.116699,20.8976182 121.116699,21.9926758 C121.116699,23.2104553 120.623459,24.2205364 119.636963,25.0229492 C118.650467,25.8253621 117.345386,26.2265625 115.72168,26.2265625 C114.060213,26.2265625 112.530931,25.8300821 111.133789,25.0371094 L111.133789,21.9360352 C112.408209,22.7856488 113.772291,23.2104492 115.226074,23.2104492 C116.22673,23.2104492 116.878091,23.0948091 117.180176,22.8635254 C117.482261,22.6322417 117.633301,22.2853213 117.633301,21.8227539 C117.633301,21.3979471 117.394941,21.0557467 116.918213,20.7961426 C116.441485,20.5365384 115.865645,20.3099782 115.190674,20.1164551 C114.515703,19.922932 113.840742,19.6940117 113.165771,19.4296875 C112.490801,19.1653633 111.91496,18.7287628 111.438232,18.119873 C110.961505,17.5109833 110.723145,16.7439825 110.723145,15.8188477 L110.723145,15.8188477 Z" id="Combined-Shape"></path>
                        </g>
                    </g>
                </g>
            </g>
        </g>
    </g>
</svg>