<?xml version="1.0" encoding="UTF-8"?>
<svg width="90px" height="40px" viewBox="0 0 90 40" version="1.1" xmlns="http://www.w3.org/2000/svg" xmlns:xlink="http://www.w3.org/1999/xlink">
    <title>Combined-Shape</title>
    <g id="Page-1" stroke="none" stroke-width="1" fill="none" fill-rule="evenodd">
        <g id="selcom" fill="#346275" fill-rule="nonzero">
            <path d="M77.0944611,10.4195206 C78.8257754,10.4195206 80.092912,10.8618726 80.898543,11.7468847 C81.7039678,12.6319995 82.1066807,14.0605284 82.1066807,16.0327794 L82.1066807,16.0327794 L82.1066807,20.8318929 L88.7468112,20.8318929 C89.4392753,20.8318929 89.9998659,21.3920479 89.9998659,22.0818171 L89.9998659,22.0818171 L89.9998659,27.1137636 C89.9998659,30.3664425 87.3594162,33.0048405 84.1042088,33.0048405 L84.1042088,33.0048405 L70.1741379,33.0048405 C69.6204336,32.948558 69.1869878,32.482481 69.1869878,31.9129798 C69.1869878,31.3079425 69.6793294,30.8160865 70.2848369,30.8160865 L70.2848369,30.8160865 L84.1042088,30.8160865 C86.1463456,30.8160865 87.8093078,29.1543138 87.8093078,27.1137636 L87.8093078,27.1137636 L87.8093078,23.1626884 C87.807046,23.010479 87.6833959,22.8868218 87.5310676,22.8842541 L87.5310676,22.8842541 L81.0139707,22.8842541 C80.2835791,22.8842541 79.6923577,22.2934929 79.6923577,21.5639767 L79.6923577,21.5639767 L79.6923577,16.3036135 C79.6923577,15.6398287 79.6547385,15.0632408 79.5863864,14.5690226 C79.5156704,14.0769612 79.383797,13.6699399 79.1931298,13.3473423 C79.0022575,13.0249502 78.7290552,12.7824629 78.3780435,12.6224479 C78.0248731,12.4624329 77.5655261,12.3800632 77.0024686,12.3800632 L77.0024686,12.3800632 L74.5575168,12.3800632 L74.5575168,21.6769526 C74.5575168,22.3429969 74.015838,22.8842541 73.3490709,22.8842541 C72.6825079,22.8842541 72.1407269,22.3429969 72.1407269,21.6769526 L72.1407269,21.6769526 L72.1407269,12.3800632 L69.6936165,12.3800632 C69.1304559,12.3800632 68.6713151,12.4624329 68.3204055,12.6224479 C67.9669278,12.7824629 67.6959853,13.0249502 67.5028522,13.3473423 C67.312083,13.6699399 67.1824703,14.0769612 67.1119605,14.5690226 C67.0411415,15.0632408 67.005783,15.6398287 67.005783,16.3036135 L67.005783,16.3036135 L67.005783,21.8581249 L67.0294234,21.8581249 L67.0294234,38.3805419 C67.0294234,39.2749001 66.3039657,40 65.4088091,40 C65.0743452,40 64.7612619,39.8987325 64.5045044,39.7245442 L64.5045044,39.7245442 L55.6903626,33.2332572 L55.6680583,33.2168244 C55.6572659,33.2073755 55.6478096,33.2003915 55.6359894,33.1932021 C55.4547786,33.0731396 55.2404721,33.0048405 55.0096157,33.0048405 L55.0096157,33.0048405 L5.89564765,33.0048405 C2.64064504,33.0048405 9.24718527e-05,30.3664425 9.24718527e-05,27.1137636 L9.24718527e-05,27.1137636 L9.24718527e-05,26.1346734 C9.24718527e-05,25.5297389 0.492228172,25.0403478 1.09526915,25.0403478 C1.70067406,25.0403478 2.19075406,25.5297389 2.19075406,26.1346734 L2.19075406,26.1346734 L2.19075406,27.1137636 C2.19075406,29.1543138 3.85351076,30.8160865 5.89564765,30.8160865 L5.89564765,30.8160865 L56.1118852,30.8160865 C56.3685396,30.8160865 56.6088513,30.8938345 56.8090769,31.027865 L56.8090769,31.027865 L64.5893023,36.7613918 L64.5893023,16.0327794 C64.5893023,14.0605284 64.9921173,12.6319995 65.7976452,11.7468847 C66.6030701,10.8618726 67.8705149,10.4195206 69.6040909,10.4195206 L69.6040909,10.4195206 L77.0944611,10.4195206 Z M56.5854061,10.1794468 C57.4921777,10.1794468 58.3306992,10.3041311 59.1055974,10.5536024 C59.8830645,10.8077982 60.5565138,11.1938677 61.1291297,11.7163298 C61.706063,12.2411542 62.1512259,12.9143879 62.4763355,13.7404471 C62.7966144,14.5642468 62.9591186,15.5504237 62.9591186,16.6966156 C62.9591186,17.8429101 62.7918867,18.8242598 62.4621515,19.6409729 C62.1277917,20.4554264 61.6732745,21.1190057 61.1006586,21.6322244 C60.5283499,22.1453404 59.8523316,22.5218583 59.0775366,22.7642429 C58.3025364,23.0043681 57.4615479,23.1244306 56.5570371,23.1244306 C55.6501634,23.1244306 54.8069132,23.0043681 54.0321182,22.7642429 C53.2593787,22.5218583 52.5812018,22.1453404 52.0085858,21.6322244 C51.4362771,21.1190057 50.9863866,20.4554264 50.6661077,19.6409729 C50.3432588,18.8242598 50.1833256,17.8429101 50.1833256,16.6966156 C50.1833256,15.5504237 50.3479875,14.5642468 50.6800866,13.7404471 C51.0122887,12.9143879 51.46444,12.2411542 52.0392156,11.7163298 C52.6139902,11.1938677 53.2877478,10.8077982 54.062748,10.5536024 C54.8399078,10.3041311 55.6784294,10.1794468 56.5854061,10.1794468 Z M47.8277449,10.4195001 C48.3930637,10.4195001 48.8547749,10.8784903 48.8547749,11.445732 C48.8547749,12.012871 48.3930637,12.4718613 47.8277449,12.4718613 L47.8277449,12.4718613 L44.1108255,12.4718613 C43.6892005,12.4718613 43.2816571,12.5283492 42.888298,12.6366007 C42.4949389,12.7495766 42.1487583,12.9637173 41.8471864,13.2862121 C41.5433533,13.6087069 41.3031442,14.0464372 41.1217283,14.5996083 C40.9404151,15.1526767 40.8485251,15.8728467 40.8485251,16.7578588 C40.8485251,17.6216109 40.9404151,18.3206235 41.1217283,18.8548968 C41.3031442,19.3891701 41.5480814,19.8011213 41.8613708,20.0929073 C42.1722961,20.3847959 42.5256717,20.5801415 42.9190307,20.6812036 C43.309923,20.7825738 43.7198305,20.8319751 44.1413527,20.8319751 L44.1413527,20.8319751 L47.8277449,20.8319751 C48.3954277,20.8319751 48.8547749,21.2908626 48.8547749,21.8580016 C48.8547749,22.425346 48.3954277,22.8843363 47.8277449,22.8843363 L47.8277449,22.8843363 L43.9601424,22.8843363 C43.2557552,22.8843363 42.5702805,22.7736199 41.9060824,22.5524953 C41.2417814,22.3311652 40.6482995,21.9733397 40.1253283,21.4814838 C39.6000958,20.9872656 39.1784707,20.3494653 38.8557252,19.5633584 C38.5330823,18.7796138 38.3728401,17.8240431 38.3728401,16.6966464 C38.3728401,15.5692496 38.5378104,14.6089545 38.8699095,13.815761 C39.2043727,13.0203079 39.6308285,12.3705938 40.1535942,11.8669267 C40.6789295,11.3656218 41.2771396,10.9984502 41.9508967,10.7655144 C42.6269152,10.5348382 43.3052977,10.4195001 43.9906695,10.4195001 L43.9906695,10.4195001 L47.8277449,10.4195001 Z M30.8990898,0 C31.504392,0 31.9943691,0.489493755 31.9943691,1.09442834 C31.9943691,1.69926021 31.504392,2.18885667 30.8990898,2.18885667 L30.8990898,2.18885667 L5.89576074,2.18885667 C3.85362375,2.18885667 2.19066159,3.85052672 2.19066159,5.89343908 L2.19066159,5.89343908 L2.19066159,20.5482618 C2.19168939,20.7055037 2.31749855,20.831215 2.4749655,20.831215 L2.4749655,20.831215 L14.7994283,20.831934 C15.0420015,20.831934 15.2823133,20.8107767 15.5248865,20.7707216 C15.7650955,20.7307692 15.9865977,20.650659 16.1890846,20.5306991 C16.389413,20.4082744 16.5519165,20.2482594 16.6720724,20.0458271 C16.7921256,19.8457571 16.8533856,19.5845774 16.8533856,19.2620825 C16.8533856,18.5984005 16.6814258,18.165292 16.3398705,17.9652219 C15.9959512,17.7627896 15.5343427,17.6616249 14.9502142,17.6616249 L14.9502142,17.6616249 L12.8348943,17.6616249 C12.3121286,17.6616249 11.8032389,17.6027747 11.3108976,17.4803499 C10.816398,17.3602873 10.3734963,17.16032 9.98250143,16.8778802 C9.58914228,16.5954405 9.27122755,16.2235444 9.03091572,15.7621919 C8.78823986,15.2985799 8.66808389,14.7149053 8.66808389,14.0110655 C8.66808389,13.3262261 8.80478822,12.75426 9.07562726,12.290648 C9.34656919,11.8269332 9.69984199,11.4550371 10.1331845,11.1749596 C10.5643685,10.8926226 11.0495148,10.6971743 11.5818395,10.5841984 C12.1165283,10.4759469 12.6441249,10.419459 13.1670961,10.419459 L13.1670961,10.419459 L17.3667978,10.419459 C17.9345834,10.419459 18.3938277,10.8784492 18.3938277,11.4456909 C18.3938277,12.01283 17.9345834,12.4718202 17.3667978,12.4718202 L17.3667978,12.4718202 L13.0163102,12.4718202 C12.3732858,12.4718202 11.8692271,12.5777094 11.506498,12.7895906 C11.1436661,12.9990068 10.962353,13.3967847 10.962353,13.980562 C10.962353,14.5242842 11.1249591,14.9172349 11.4474993,15.15736 C11.7679836,15.3997447 12.2319561,15.5198072 12.8348943,15.5198072 L12.8348943,15.5198072 L15.0113715,15.5198072 C15.574429,15.5198072 16.1091177,15.5810196 16.6108124,15.7010822 C17.1148711,15.8210421 17.5576699,16.0234743 17.9415727,16.3035519 C18.3232143,16.5859916 18.6247862,16.9626122 18.8460827,17.4356731 C19.0674822,17.908734 19.1781819,18.497133 19.1781819,19.2008701 C19.1781819,19.9257646 19.062754,20.5259747 18.8320012,20.9967761 C18.5987815,21.469837 18.2925843,21.8487171 17.9109428,22.1287946 C17.5270399,22.4112343 17.0888665,22.6065799 16.596628,22.7171936 C16.1020255,22.8278073 15.5956027,22.8842952 15.0703702,22.8842952 L15.0703702,22.8842952 L1.24370128,22.8842952 C0.555965297,22.8842952 0,22.3288646 0,21.6415603 L0,21.6415603 L0,5.89343908 C0,2.63839804 2.64055247,0 5.89576074,0 L5.89576074,0 L30.8990898,0 Z M84.101875,0.00236222332 C87.3618111,0.00236222332 90,2.63839804 90,5.89343908 L90,5.89343908 L90,17.5816174 C90,18.1864493 89.5100223,18.6760457 88.9046179,18.6760457 C88.2993155,18.6760457 87.8093388,18.1864493 87.8093388,17.5816174 L87.8093388,17.5816174 L87.8093388,5.89343908 C87.8093388,3.85052672 86.1463756,2.18885667 84.101875,2.18885667 L84.101875,2.18885667 L36.8502723,2.18885667 C36.6983557,2.18906208 36.5746023,2.30891924 36.5686407,2.46051236 L36.5686407,2.46051236 L36.5686407,20.8838002 C36.5686407,21.9875747 35.6712229,22.8842952 34.5664873,22.8842952 L34.5664873,22.8842952 L25.9432178,22.8842952 C25.1775706,22.8842952 24.4544765,22.7736815 23.7690018,22.5524542 C23.085994,22.3312268 22.4734968,21.9735041 21.9411721,21.4791832 C21.4088475,20.9873272 20.9872224,20.3494242 20.673933,19.5656796 C20.3606437,18.7795727 20.2051296,17.824002 20.2051296,16.6966053 C20.2051296,15.5715707 20.3606437,14.5995672 20.673933,13.7852164 C20.9872224,12.9708656 21.4135755,12.2952697 21.9576178,11.7609964 C22.5017628,11.229188 23.1471512,10.8314102 23.8915218,10.5701277 C24.6334256,10.3088453 25.4508765,10.1794365 26.336474,10.1794365 C28.350345,10.1794365 29.8390862,10.7206938 30.8094817,11.8081382 C31.7257092,12.8413541 32.2062301,14.3194897 32.2510445,16.2424422 C32.2534085,16.2800323 32.2534085,16.3177252 32.2534085,16.3576776 C32.2322348,17.0661392 31.6503675,17.6333809 30.9343657,17.6333809 L30.9343657,17.6333809 L22.7114446,17.6333809 C22.7727046,18.2971656 22.9093061,18.8360607 23.1212493,19.2456497 C23.3309312,19.6598604 23.5900527,19.986977 23.8915218,20.2271021 C24.1907296,20.4694868 24.5345462,20.6295017 24.9185519,20.7096119 C25.3000906,20.7919816 25.6934497,20.831934 26.096265,20.831934 L26.096265,20.831934 L34.1519544,20.831934 L34.1519544,2.12055761 C34.1519544,0.950743535 35.101176,0.00236222332 36.271797,0.00236222332 L36.271797,0.00236222332 L84.101875,0.00236222332 Z M56.5570371,12.0787771 C55.2473484,12.0787771 54.2698609,12.4153425 53.6244724,13.0884735 C52.9814478,13.7593449 52.658702,14.9667491 52.658702,16.7131511 C52.658702,17.5933361 52.7389774,18.3205927 52.9014806,18.8925589 C53.061517,19.4645251 53.3090243,19.9257748 53.6409182,20.2765136 C53.9732224,20.629512 54.3852886,20.8743616 54.8775271,21.0155814 C55.3722325,21.1544391 55.9398125,21.2226354 56.5854061,21.2226354 C57.2095181,21.2226354 57.7678479,21.1544391 58.2623471,21.0155814 C58.7524269,20.8743616 59.1644931,20.629512 59.4849771,20.2765136 C59.8075178,19.9257748 60.0525572,19.4645251 60.2245168,18.8925589 C60.3965795,18.3205927 60.4812743,17.5933361 60.4812743,16.7131511 C60.4812743,14.9667491 60.1538008,13.7593449 59.498956,13.0884735 C58.8466812,12.4153425 57.8642598,12.0787771 56.5570371,12.0787771 Z M26.426,12.2294356 C25.401334,12.2294356 24.5651762,12.4718202 23.9197878,12.95433 C23.2767634,13.4368398 22.8834043,14.3335603 22.7443359,15.6398698 L22.7443359,15.6398698 L29.7801904,15.6398698 C29.7000179,14.4536229 29.3961847,13.5897681 28.8756803,13.0461486 C28.350345,12.5024264 27.5354638,12.2294356 26.426,12.2294356 Z" id="Combined-Shape"></path>
        </g>
    </g>
</svg>