<?xml version="1.0" encoding="UTF-8"?>
<svg width="404px" height="291px" viewBox="0 0 404 291" version="1.1" xmlns="http://www.w3.org/2000/svg" xmlns:xlink="http://www.w3.org/1999/xlink">
    <!-- Generator: Sketch 43.2 (39069) - http://www.bohemiancoding.com/sketch -->
    <title>tigo</title>
    <desc>Created with Sketch.</desc>
    <defs></defs>
    <g id="Page-1" stroke="none" stroke-width="1" fill="none" fill-rule="evenodd">
        <g id="tigo" fill-rule="nonzero" fill="#346275">
            <path d="M316.468,7.149 C333.318,-1.201 353.558,-1.491 370.988,5.269 C381.048,9.269 390.638,15.469 396.878,24.479 C401.998,32.239 400.978,41.859 400.828,50.679 C395.608,45.129 390.388,39.439 383.938,35.259 C371.128,26.419 355.008,23.049 339.638,24.799 C320.868,26.199 302.498,35.279 291.238,50.569 C291.398,43.079 290.008,35.139 293.218,28.079 C297.488,18.12 307.088,11.77 316.468,7.149 Z" id="Shape"></path>
            <path d="M106.098,22.209 C115.048,19.969 125.108,25.669 127.468,34.659 C130.908,45.339 121.808,57.489 110.638,57.369 C100.938,57.949 92.358,49.089 92.508,39.509 C92.358,31.479 98.318,24.029 106.098,22.209 Z" id="Shape"></path>
            <path d="M17.988,39.799 C21.948,37.759 26.538,38.359 30.828,38.309 C30.788,47.559 30.768,56.809 30.828,66.059 C44.938,66.019 59.038,66.039 73.148,66.049 C72.928,71.169 73.518,76.339 72.738,81.419 C71.078,88.619 63.548,92.889 56.528,92.999 C47.958,93.119 39.388,93.079 30.818,93.009 C30.768,109.519 30.808,126.029 30.808,142.539 C30.798,148.979 32.518,156.219 38.168,160.029 C43.878,163.829 51.108,163.169 57.618,162.759 C63.038,162.439 68.238,160.769 73.118,158.459 C72.738,165.689 74.488,173.609 70.408,180.119 C66.498,186.529 58.718,189.039 51.628,189.779 C41.878,190.559 31.758,189.559 22.748,185.569 C13.958,181.809 7.058,174.109 3.848,165.149 C1.188,157.929 0.378,150.169 0.488,142.519 C0.488,118.509 0.498,94.499 0.488,70.489 C0.588,64.379 1.278,57.919 4.818,52.729 C8.278,47.629 12.398,42.649 17.988,39.799 Z" id="Shape"></path>
            <path d="M341.748,63.459 C354.248,62.709 367.148,65.519 377.628,72.529 C392.268,82.259 401.138,99.099 403.108,116.349 C404.708,132.099 402.558,148.619 394.778,162.589 C387.808,175.369 375.648,185.289 361.508,188.979 C344.318,193.579 324.648,191.959 309.898,181.379 C296.158,171.849 288.008,155.809 285.818,139.479 C283.968,123.809 286.148,107.379 293.518,93.309 C298.488,83.769 306.168,75.559 315.708,70.499 C323.668,66.129 332.728,64.009 341.748,63.459 Z M336.128,91.379 C330.038,92.869 324.898,97.219 321.878,102.639 C317.018,111.049 316.428,121.059 316.888,130.539 C317.338,139.489 319.308,148.929 325.258,155.929 C331.698,163.399 342.548,165.369 351.878,163.589 C359.158,162.109 365.128,156.619 368.158,149.969 C372.138,141.439 372.538,131.729 371.848,122.489 C371.038,113.429 368.718,103.729 361.858,97.269 C355.168,90.77 344.938,89.509 336.128,91.379 Z" id="Shape"></path>
            <path d="M204.488,68.5 C217.208,64.5 230.948,62.92 244.128,65.34 C253.408,67.15 262.958,72.03 267.268,80.86 C270.628,87.13 269.278,94.45 269.528,101.25 C268.288,101.26 267.048,101.27 265.808,101.28 C255.498,93.62 242.298,91.04 229.688,90.9 C217.818,90.69 205.498,95.4 198.018,104.85 C192.058,111.89 189.668,121.41 190.158,130.5 C190.468,140.58 193.028,151.4 200.518,158.65 C208.528,166.83 220.698,169.04 231.708,168.57 C235.868,168.31 241.638,167.17 242.208,162.15 C242.738,151.15 242.578,140.01 240.068,129.23 C245.928,129.39 251.798,129.05 257.648,129.42 C265.148,130.13 272.318,136.57 271.808,144.49 C271.318,155.44 273.468,167.1 268.718,177.4 C264.458,186.7 254.488,191.64 244.908,193.57 C226.508,197.14 206.538,195.49 190.048,186.1 C175.958,178.4 165.078,164.96 161.068,149.36 C156.578,132.08 158.468,112.84 167.598,97.35 C175.598,83.459 189.328,73.35 204.488,68.5 Z" id="Shape"></path>
            <path d="M95.228,68.74 C102.328,68.99 110.038,67.89 116.418,71.74 C122.668,75.22 125.518,82.63 125.528,89.5 C125.638,105.83 125.538,122.16 125.588,138.5 C125.648,143.8 125.238,149.16 126.178,154.41 C126.718,157.71 128.528,161.02 131.638,162.53 C137.248,165.51 143.838,164.81 149.968,164.86 C149.888,171.25 150.648,178.26 147.058,183.91 C144.208,188.35 138.568,189.61 133.638,189.8 C123.608,190.17 112.728,187.97 105.348,180.69 C97.618,173.19 95.208,161.94 95.228,151.52 C95.218,123.93 95.208,96.33 95.228,68.74 Z" id="Shape"></path>
            <path d="M191.488,212.569 C200.548,224.119 210.758,235.059 223.358,242.789 C238.558,252.409 256.738,256.939 274.668,256.299 C298.388,255.959 322.188,247.579 340.028,231.749 C346.608,226.389 351.568,219.459 356.698,212.779 C356.818,222.579 357.798,232.729 354.318,242.119 C350.058,255.989 338.828,266.239 327.058,273.999 C310.768,284.679 291.268,290.889 271.708,290.049 C246.538,289.129 221.458,278.449 204.428,259.719 C199.648,254.519 195.568,248.539 193.628,241.679 C190.338,232.339 191.188,222.279 191.488,212.569 Z" id="Shape"></path>
        </g>
    </g>
</svg>